<?xml version="1.0" standalone="no"?>
<!DOCTYPE svg PUBLIC "-//W3C//DTD SVG 20010904//EN"
 "http://www.w3.org/TR/2001/REC-SVG-20010904/DTD/svg10.dtd">
<svg version="1.0" xmlns="http://www.w3.org/2000/svg"
 width="874.000000pt" height="874.000000pt" viewBox="0 0 874.000000 874.000000"
 preserveAspectRatio="xMidYMid meet">
<metadata>
Created by potrace 1.14, written by Peter Selinger 2001-2017
</metadata>
<g transform="translate(0.000000,874.000000) scale(0.100000,-0.100000)"
fill="#000000" stroke="none">
<path d="M3640 8080 c-96 -9 -281 -42 -367 -66 -32 -8 -80 -21 -106 -28 -60
-17 -70 -27 -71 -68 0 -46 34 -470 39 -485 9 -27 -9 -42 -63 -54 -32 -7 -61
-15 -67 -19 -5 -4 -28 -11 -50 -15 -22 -3 -113 -31 -203 -61 -239 -79 -409
-169 -463 -245 -11 -16 -24 -29 -28 -29 -8 0 -35 24 -181 159 -52 48 -117 108
-145 132 -27 24 -75 68 -105 96 -30 29 -61 53 -68 53 -12 0 -111 -69 -141 -98
-8 -7 -37 -31 -65 -51 -168 -125 -427 -375 -546 -527 -111 -142 -200 -294
-200 -342 0 -8 89 -104 198 -214 108 -109 198 -204 200 -212 2 -7 -20 -62 -49
-122 -163 -344 -242 -536 -290 -706 l-13 -48 -317 0 c-241 0 -319 -3 -327 -12
-5 -7 -12 -31 -14 -53 -3 -22 -15 -116 -26 -210 -55 -449 -56 -690 -6 -935 15
-71 34 -139 42 -150 2 -3 150 -7 329 -10 l326 -5 23 -101 c26 -117 76 -278
104 -337 11 -22 20 -45 20 -49 0 -25 104 -215 176 -323 30 -44 54 -87 54 -95
0 -8 -35 -54 -78 -101 -42 -47 -127 -141 -188 -210 -62 -68 -128 -142 -148
-164 -19 -22 -36 -46 -36 -52 0 -20 414 -429 590 -583 47 -41 87 -77 90 -80 3
-3 25 -21 50 -40 25 -19 52 -41 60 -49 23 -22 142 -98 167 -105 16 -5 35 4 80
41 32 26 94 76 138 112 44 35 94 76 110 90 17 14 50 41 73 59 22 19 51 42 63
53 29 25 34 25 89 -16 26 -19 51 -35 56 -35 4 0 15 -6 23 -14 23 -20 221 -118
325 -161 104 -43 284 -101 341 -110 22 -4 55 -11 72 -17 l33 -9 2 -302 3 -302
40 -12 c22 -6 85 -16 140 -22 55 -6 120 -14 145 -17 25 -3 187 -8 360 -11 320
-5 379 -2 625 35 102 16 110 19 116 42 4 14 7 163 8 332 l1 308 23 4 c12 2 54
9 92 15 67 11 157 34 200 51 11 4 43 16 70 25 90 31 309 133 354 164 14 10 54
33 88 51 l61 34 59 -50 c31 -27 65 -56 74 -64 9 -8 25 -22 35 -30 10 -8 87
-72 170 -143 83 -70 157 -127 164 -127 14 0 164 98 197 130 12 11 24 20 27 20
17 0 284 262 388 380 151 173 308 374 308 395 0 11 -199 258 -266 330 -11 11
-35 40 -54 65 -19 25 -40 50 -46 55 -6 6 -18 22 -28 38 -15 24 -15 28 -1 33 8
3 15 11 15 16 0 6 14 27 30 49 27 33 140 224 140 235 0 2 12 29 26 61 14 32
29 67 34 78 12 28 56 164 64 198 14 59 28 57 -503 57 -267 0 -496 -3 -508 -6
-16 -4 -39 -37 -78 -111 -106 -201 -210 -339 -384 -511 -195 -193 -378 -317
-661 -445 -31 -14 -231 -82 -315 -107 -16 -5 -88 -19 -160 -32 -111 -19 -164
-23 -365 -22 -199 0 -255 3 -365 23 -71 12 -143 26 -160 32 -16 5 -66 20 -110
33 -125 38 -188 62 -297 117 -93 45 -286 155 -298 169 -3 3 -34 27 -69 53
-238 174 -503 499 -621 762 -47 104 -87 202 -99 245 -7 25 -19 63 -26 85 -49
150 -69 309 -69 540 0 260 26 434 99 650 39 118 141 338 189 408 14 21 26 40
26 43 0 3 39 57 86 121 137 185 397 432 519 496 17 8 55 31 85 51 93 61 254
136 406 189 290 101 644 139 947 102 166 -20 277 -43 402 -83 106 -34 252 -90
280 -107 17 -11 74 -41 205 -111 19 -11 37 -21 40 -24 3 -3 30 -22 60 -42 30
-20 66 -46 80 -58 14 -12 45 -37 70 -56 25 -19 88 -77 140 -129 l95 -95 593 0
c660 0 622 -4 588 68 -20 42 -45 76 -104 141 l-42 48 205 205 c113 112 205
211 205 220 0 15 -64 88 -212 241 -25 26 -74 78 -108 115 -104 111 -329 351
-421 447 -47 50 -103 109 -124 133 -48 52 -71 53 -117 5 -19 -21 -112 -113
-207 -205 -152 -149 -174 -166 -194 -159 -12 5 -67 28 -122 51 -263 109 -539
204 -695 239 -52 12 -106 25 -120 29 l-25 7 -3 332 c-2 259 -5 333 -15 342 -8
6 -78 22 -158 36 -124 23 -180 27 -399 30 -140 2 -293 0 -340 -5z"/>
<path d="M3751 5917 c-6 -8 -20 -43 -31 -79 -11 -36 -27 -69 -36 -72 -9 -3
-46 -6 -83 -6 l-67 0 -59 60 c-40 41 -67 60 -84 60 -13 0 -51 -17 -83 -37
l-58 -38 0 -71 0 -71 -53 -36 c-30 -21 -61 -37 -70 -37 -9 0 -40 15 -69 33
-29 19 -61 37 -71 40 -24 9 -157 -78 -156 -102 0 -9 15 -47 33 -86 38 -79 38
-75 -32 -154 l-49 -55 -60 18 c-73 22 -92 19 -113 -19 -10 -16 -27 -47 -39
-68 -11 -21 -21 -43 -21 -50 0 -7 25 -34 55 -62 l55 -50 -11 -40 c-6 -22 -17
-53 -24 -70 -7 -16 -16 -43 -19 -58 l-7 -28 -77 3 -77 3 -3 -94 c-2 -58 1 -98
8 -107 7 -7 43 -23 81 -35 74 -23 72 -21 88 -113 13 -70 10 -74 -81 -139 -64
-44 -70 -61 -41 -124 32 -70 37 -73 133 -73 l87 0 47 -70 c26 -39 54 -74 62
-77 8 -3 24 3 35 12 27 25 21 40 -65 168 l-26 37 -83 0 c-72 0 -87 3 -103 21
-19 21 -18 21 16 50 113 96 113 96 106 152 -12 109 -25 170 -39 185 -8 8 -43
24 -78 36 -61 21 -64 23 -67 57 l-3 36 58 -8 c49 -7 61 -5 74 9 8 9 35 76 58
149 47 147 47 146 -20 198 -41 32 -47 50 -25 80 13 19 15 19 76 0 l62 -19 47
50 c142 152 149 168 106 248 -31 59 -31 71 0 92 25 16 27 15 79 -19 86 -57
102 -57 183 1 17 12 34 22 37 22 7 0 24 13 57 43 15 14 19 31 19 85 0 62 2 70
24 82 27 14 61 7 50 -11 -4 -7 -3 -9 3 -6 6 4 21 -5 34 -19 55 -58 78 -65 193
-58 122 8 125 10 154 99 17 55 22 60 50 63 27 3 32 0 37 -25 36 -174 52 -188
198 -174 125 12 154 28 128 70 -7 11 -31 13 -111 9 -117 -6 -106 -15 -136 107
-9 39 -22 76 -27 83 -13 17 -161 17 -176 -1z"/>
<path d="M6670 5450 c-12 -8 -15 -42 -17 -192 -1 -101 -2 -205 -2 -231 l-1
-48 -42 3 c-39 3 -43 5 -40 28 2 14 8 30 12 35 5 6 12 38 15 71 8 64 -5 105
-40 134 -19 16 -209 32 -240 20 -12 -5 -29 -31 -43 -69 -26 -67 -28 -60 30
-132 14 -19 30 -46 33 -61 l7 -28 -55 0 c-31 0 -59 5 -62 10 -4 6 -7 67 -7
136 -1 141 -3 144 -77 144 -28 0 -43 -5 -50 -18 -5 -10 -10 -93 -10 -185 -1
-92 -6 -178 -11 -191 -8 -22 -43 -40 -54 -28 -3 3 -6 97 -6 208 0 233 5 222
-99 209 -159 -18 -213 -70 -214 -205 -1 -86 28 -141 98 -181 54 -31 50 -37
-30 -41 -49 -3 -50 -4 -53 -37 -2 -19 -1 -44 2 -57 6 -23 10 -24 102 -24 97 0
121 7 161 43 24 22 21 24 38 -29 4 -13 15 -16 51 -11 59 6 93 31 123 90 l23
47 107 1 c58 0 182 0 274 -1 117 -1 173 2 183 11 11 9 14 62 14 294 0 314 4
295 -68 295 -20 0 -44 -5 -52 -10z m-212 -340 l3 -35 -21 30 c-25 37 -25 47
-2 43 11 -2 18 -14 20 -38z m-572 -48 c2 -87 -14 -104 -53 -56 -28 33 -26 83
3 116 34 37 49 19 50 -60z"/>
<path d="M6822 5448 c-9 -9 -12 -87 -12 -288 0 -201 3 -279 12 -288 7 -7 33
-12 60 -12 37 0 50 4 58 19 15 29 14 553 -2 569 -7 7 -33 12 -58 12 -25 0 -51
-5 -58 -12z"/>
<path d="M7272 5447 c-17 -20 -16 -547 0 -569 10 -13 31 -18 87 -20 l74 -3 11
-40 12 -40 64 -3 c93 -5 124 4 175 48 l46 39 116 0 c64 0 120 4 126 10 10 10
11 377 1 393 -8 13 -101 9 -112 -5 -7 -8 -13 -68 -14 -143 l-3 -129 -49 -3
c-32 -2 -52 1 -58 10 -4 7 -8 66 -7 130 3 140 -2 148 -75 148 -105 -1 -164
-27 -198 -89 -16 -29 -21 -60 -28 -193 0 -5 -9 -8 -20 -8 -19 0 -20 7 -20 221
0 133 -4 228 -10 240 -8 15 -21 19 -59 19 -27 0 -53 -6 -59 -13z m336 -424
c-2 -82 -7 -118 -15 -121 -10 -3 -13 22 -13 101 0 107 5 137 21 137 6 0 8 -50
7 -117z"/>
<path d="M5161 5422 c-15 -27 -14 -85 1 -100 15 -15 90 -16 106 0 8 8 15 8 26
-1 8 -7 35 -11 63 -9 l48 3 3 48 c4 66 -10 81 -68 72 -51 -7 -58 -7 -122 1
-40 5 -48 3 -57 -14z"/>
<path d="M8105 5268 c-4 -9 -5 -37 -3 -63 l3 -48 49 -12 c66 -17 107 -59 113
-118 l6 -46 -119 -3 -119 -3 -3 -49 c-2 -32 1 -52 10 -57 7 -5 88 -9 180 -9
l168 0 6 26 c12 47 -2 187 -24 234 -41 89 -118 146 -212 157 -39 4 -51 2 -55
-9z"/>
<path d="M5324 5261 c-79 -19 -163 -79 -200 -143 -46 -78 -66 -136 -67 -193
l-2 -60 56 -3 56 -3 13 48 c24 89 89 191 112 177 4 -3 8 -47 8 -99 0 -51 3
-100 6 -109 5 -14 30 -16 168 -16 113 0 166 4 174 12 8 8 12 66 12 193 0 127
-4 185 -12 193 -7 7 -33 12 -58 12 -25 0 -51 -5 -58 -12 -8 -8 -12 -55 -12
-145 l0 -133 -34 0 c-19 0 -38 5 -41 11 -4 6 -6 65 -6 131 1 79 -2 125 -10
134 -12 15 -54 17 -105 5z"/>
<path d="M3815 5145 c-228 -29 -426 -116 -619 -270 -117 -93 -133 -109 -183
-175 -68 -92 -80 -183 -41 -331 39 -149 24 -263 -56 -433 -59 -126 -119 -218
-246 -377 l-35 -44 40 31 c70 55 151 148 215 245 63 96 120 206 120 233 0 8 4
17 9 20 15 10 36 129 35 201 -1 39 -11 105 -23 147 -51 186 -10 267 217 436
96 71 203 134 282 166 25 10 54 22 65 27 61 24 233 62 247 53 10 -6 -24 -39
-108 -105 -359 -282 -387 -316 -388 -464 -1 -99 26 -163 102 -243 28 -29 64
-68 80 -87 42 -47 107 -92 145 -100 18 -4 38 -12 45 -18 14 -11 95 -4 153 13
60 17 109 57 296 239 l178 175 3 -40 c10 -107 -38 -241 -143 -404 -26 -41 -59
-93 -73 -115 -93 -149 -232 -267 -347 -296 -27 -6 -26 -7 15 -8 96 -2 245 105
354 253 139 190 210 313 240 415 19 64 23 296 6 306 -20 12 -60 -23 -321 -275
-175 -169 -207 -189 -294 -190 -84 0 -123 17 -184 78 -149 151 -187 218 -177
314 8 65 25 104 63 142 15 15 143 122 286 238 142 116 261 217 264 225 14 35
-49 40 -222 18z"/>
<path d="M4170 5015 c-9 -10 -10 -22 -4 -34 12 -26 161 -151 180 -151 8 0 40
14 71 30 43 23 59 27 69 19 20 -17 18 -31 -20 -106 l-35 -68 19 -30 c11 -16
35 -57 54 -91 44 -74 61 -90 106 -98 19 -3 51 -9 72 -12 26 -5 38 -13 42 -28
6 -22 3 -25 -92 -107 -37 -33 -42 -41 -42 -80 0 -52 26 -167 42 -186 6 -7 37
-27 70 -45 46 -25 58 -36 56 -52 -3 -19 -11 -22 -80 -26 -42 -3 -78 -7 -81
-10 -7 -9 -56 -193 -63 -238 -7 -42 -5 -45 41 -92 40 -40 47 -53 41 -74 -7
-29 -24 -31 -125 -17 -49 7 -57 6 -75 -14 -49 -50 -146 -180 -146 -194 0 -6
12 -35 27 -66 25 -51 26 -56 11 -71 -15 -15 -22 -13 -86 21 l-70 38 -49 -18
c-78 -29 -171 -73 -177 -84 -4 -5 -7 -44 -7 -85 l-1 -76 -28 0 c-22 0 -39 13
-76 56 -27 30 -57 60 -67 65 -23 13 -247 -57 -247 -77 0 -50 20 -53 137 -23
l81 22 34 -39 c73 -86 71 -84 151 -84 43 0 78 5 85 12 7 7 12 45 12 99 l0 86
71 31 71 32 62 -34 c96 -53 96 -53 155 0 28 25 51 54 51 65 0 10 -12 43 -26
72 l-26 53 48 68 49 68 91 -7 91 -7 42 59 c22 32 41 65 41 74 0 9 -25 40 -56
69 l-56 53 22 80 c11 45 26 87 31 94 6 7 40 13 77 15 l67 3 24 50 c13 28 24
63 25 80 1 27 -5 33 -78 71 -85 44 -90 51 -101 135 l-7 55 65 55 c90 75 90 76
67 151 -11 34 -26 66 -33 70 -6 4 -31 8 -55 8 -69 0 -107 22 -147 84 -19 30
-35 64 -35 75 0 11 16 50 35 85 19 36 35 72 35 80 0 19 -90 96 -113 96 -10 0
-43 -11 -73 -25 -30 -14 -57 -25 -60 -25 -2 0 -35 25 -71 55 -70 57 -92 65
-113 40z"/>
<path d="M5512 4828 c-7 -7 -12 -30 -12 -53 0 -23 5 -46 12 -53 7 -7 30 -12
53 -12 50 0 65 13 65 58 0 55 -15 72 -63 72 -24 0 -48 -5 -55 -12z"/>
<path d="M7744 4826 c-3 -7 -4 -35 -2 -62 l3 -49 46 -3 c32 -2 51 2 62 13 20
19 27 19 27 0 0 -19 90 -21 108 -3 15 15 16 72 2 99 -8 15 -22 19 -60 19 -47
0 -50 -2 -50 -25 0 -14 -5 -25 -12 -25 -6 0 -8 3 -5 6 3 4 2 15 -4 25 -7 15
-21 19 -60 19 -33 0 -51 -5 -55 -14z"/>
<path d="M7385 4436 c-81 -36 -119 -165 -96 -327 20 -133 80 -201 164 -185 47
9 100 71 117 134 20 78 23 79 32 13 11 -79 30 -116 70 -137 70 -36 157 9 172
89 7 44 8 395 1 407 -9 14 -62 12 -71 -2 -4 -7 -9 -93 -11 -192 -2 -157 -5
-182 -19 -193 -15 -11 -21 -10 -36 4 -16 14 -18 34 -18 188 0 191 -5 209 -55
203 l-30 -3 -3 -87 c-1 -49 -7 -88 -11 -88 -11 0 -21 25 -21 50 0 29 -45 100
-76 121 -34 22 -67 24 -109 5z m80 -122 c19 -21 25 -38 26 -78 2 -150 -11
-196 -57 -196 -34 0 -55 40 -61 114 -7 80 1 126 28 160 26 33 34 32 64 0z"/>
<path d="M5024 4427 c-2 -7 -3 -120 -2 -252 l3 -240 72 -3 c51 -2 81 2 103 13
30 15 61 65 74 118 11 45 26 20 26 -43 0 -76 6 -90 39 -90 48 0 51 11 51 201
0 108 4 180 10 184 7 4 10 -58 10 -177 0 -130 4 -188 12 -196 16 -16 58 -15
62 1 16 53 17 53 32 19 12 -29 18 -33 46 -30 26 2 36 10 50 38 14 28 17 31 18
13 1 -51 26 -66 71 -43 13 7 19 7 19 0 0 -5 16 -10 35 -10 37 0 40 4 62 75 8
27 13 30 48 30 39 0 40 -1 56 -50 14 -44 19 -50 45 -53 58 -5 60 4 30 135 -57
247 -79 339 -88 356 -6 11 -20 17 -43 17 -22 0 -38 -6 -44 -17 -5 -10 -24 -85
-41 -168 -18 -82 -36 -163 -39 -180 -16 -73 -26 -19 -31 165 l-5 195 -47 3
c-58 4 -61 -2 -78 -123 -14 -98 -18 -96 -40 30 -15 84 -23 95 -65 95 -56 0
-65 -8 -65 -57 0 -27 -4 -42 -10 -38 -5 3 -10 21 -10 39 0 40 -19 59 -57 54
-28 -3 -28 -4 -31 -80 -2 -43 -6 -78 -11 -78 -4 0 -15 24 -24 54 -11 35 -29
64 -48 80 -27 23 -39 26 -110 26 -55 0 -81 -4 -85 -13z m147 -119 c16 -17 19
-38 19 -122 0 -113 -13 -146 -56 -146 l-24 0 0 145 c0 141 1 145 21 145 12 0
30 -10 40 -22z m708 -140 c1 -10 -6 -18 -14 -18 -16 0 -20 35 -8 67 6 16 8 15
14 -7 4 -14 7 -33 8 -42z"/>
<path d="M6182 4413 c-6 -16 -17 -59 -26 -98 -8 -38 -27 -120 -41 -182 -14
-62 -27 -132 -28 -155 -2 -41 -1 -43 29 -46 37 -4 51 11 62 64 7 35 11 39 41
42 41 4 59 -11 67 -57 4 -20 12 -39 18 -43 17 -11 64 -9 71 2 5 8 11 8 20 0 8
-7 51 -10 111 -8 l99 3 0 50 0 50 -62 3 c-58 3 -63 5 -69 29 -4 14 -4 96 -1
181 6 162 1 192 -33 192 -50 0 -50 1 -50 -210 0 -294 -2 -291 -101 140 -14 58
-24 70 -64 70 -26 0 -35 -5 -43 -27z m61 -230 c6 -28 4 -33 -13 -33 -22 0 -23
3 -14 49 8 37 19 30 27 -16z"/>
<path d="M6737 4434 c-4 -4 -7 -96 -7 -204 0 -208 6 -246 48 -283 26 -24 85
-32 120 -18 16 7 40 31 53 54 23 39 24 53 27 226 4 219 2 231 -38 231 -18 0
-33 -7 -39 -18 -5 -9 -10 -94 -10 -187 -2 -148 -4 -172 -19 -188 -16 -15 -20
-16 -37 -3 -18 13 -20 30 -25 203 l-5 188 -30 3 c-17 2 -34 0 -38 -4z"/>
<path d="M7016 4424 c-8 -20 -7 -459 1 -479 6 -18 59 -20 69 -3 5 7 9 48 10
91 3 111 17 116 54 20 47 -125 46 -123 89 -123 25 0 41 5 45 15 5 15 -30 119
-61 178 -12 23 -13 32 -3 35 18 6 50 89 50 129 0 54 -21 112 -48 134 -33 26
-196 29 -206 3z m158 -110 c16 -41 3 -69 -36 -79 -33 -8 -51 19 -42 64 6 27
11 31 39 31 21 0 35 -6 39 -16z"/>
<path d="M7892 4428 c-9 -9 -12 -77 -12 -243 0 -166 3 -234 12 -243 18 -18
162 -16 198 3 15 8 30 20 33 27 3 8 10 2 17 -14 10 -21 21 -28 40 -28 33 0 43
11 59 68 11 40 13 42 51 42 43 0 60 -18 60 -62 0 -33 18 -48 57 -48 29 0 33 3
33 28 0 15 -12 77 -26 137 -14 61 -35 148 -46 195 -34 148 -35 150 -73 150
-18 0 -37 -6 -42 -12 -5 -7 -20 -60 -33 -118 -12 -58 -29 -130 -37 -160 -9
-30 -19 -73 -23 -95 -9 -48 -10 -47 -14 31 -2 37 -11 72 -22 89 -15 22 -16 32
-6 59 7 18 12 56 12 85 0 47 -4 57 -34 87 -33 33 -36 34 -113 34 -48 0 -84 -5
-91 -12z m154 -123 c10 -40 -1 -55 -41 -55 -34 0 -35 1 -35 40 0 39 1 40 35
40 29 0 36 -4 41 -25z m261 -152 c-3 -3 -12 -3 -19 -1 -11 2 -12 12 -4 48 l9
45 9 -43 c5 -24 7 -46 5 -49z m-266 -23 c10 -6 19 -21 19 -35 0 -44 -10 -55
-51 -55 l-39 0 0 50 c0 47 2 50 26 50 14 0 34 -5 45 -10z"/>
</g>
</svg>
