<svg xmlns="http://www.w3.org/2000/svg" width="2.7rem" height="2.4rem" viewBox="0 0 576 512">
	<path fill="#695346" d="M256 32c-17.7 0-32 14.3-32 32v101.9c0 5.6-4.5 10.1-10.1 10.1c-3.6 0-7-1.9-8.8-5.1l-48-83.9C83 123.5 32 199.8 32 288v64h512v-66.4c-.9-87.2-51.7-162.4-125.1-198.6l-48 83.9c-1.8 3.2-5.2 5.1-8.8 5.1c-5.6 0-10.1-4.5-10.1-10.1V64c0-17.7-14.3-32-32-32zM16.6 384C7.4 384 0 391.4 0 400.6c0 4.7 2 9.2 5.8 11.9C27.5 428.4 111.8 480 288 480s260.5-51.6 282.2-67.5c3.8-2.8 5.8-7.2 5.8-11.9c0-9.2-7.4-16.6-16.6-16.6z" />
</svg>